<?xml version="1.0" encoding="utf-8"?>
<!-- Generator: Adobe Illustrator 25.0.0, SVG Export Plug-In . SVG Version: 6.00 Build 0)  -->
<svg version="1.1" id="Layer_1" xmlns="http://www.w3.org/2000/svg" xmlns:xlink="http://www.w3.org/1999/xlink" x="0px" y="0px"
	 viewBox="0 0 797.2 214.3" style="enable-background:new 0 0 797.2 214.3;" xml:space="preserve">
<style type="text/css">
	.st0{fill:#FFFFFF;}
</style>
<g>
	<g>
		<path class="st0" d="M600.8,80.6c0,0.5,0.4,0.9,0.9,0.9l7.2,0c0.5,0,0.9-0.4,0.9-0.9l0-38.5h15.8c0.5,0,0.7-0.5,0.4-0.9l-5.4-6.7
			c-0.5-0.6-1.1-0.9-1.9-0.9h-30.5c-0.5,0-0.9,0.4-0.9,0.9v6.7c0,0.5,0.4,0.9,0.9,0.9h12.6L600.8,80.6z"/>
		<path class="st0" d="M283.3,81.4h7c0.7,0,1.4-0.3,1.9-0.9l36.9-46.1c0.3-0.4,0-0.9-0.4-0.9h-9.2c-0.7,0-1.4,0.3-1.9,0.9
			l-26.2,32.7V34.4c0-0.5-0.4-0.9-0.9-0.9h-7.2c-0.5,0-0.9,0.4-0.9,0.9l0,46.1C282.4,81,282.8,81.4,283.3,81.4z"/>
		<path class="st0" d="M305.2,81.4h9.2c0.7,0,1.4-0.3,1.9-0.9l12.7-15.9l12.7,15.9c0.5,0.6,1.1,0.9,1.9,0.9h7c0.5,0,0.9-0.4,0.9-0.9
			V34.4c0-0.5-0.4-0.9-0.9-0.9h-5.9c-1.4,0-2.8,0.7-3.7,1.8l-36.2,45.2C304.4,80.9,304.7,81.4,305.2,81.4z M342.4,46.9v21.2
			l-8.5-10.6L342.4,46.9z"/>
		<path class="st0" d="M544,80.5l-36.9-46.1c-0.5-0.6-1.1-0.9-1.9-0.9h-7c-0.5,0-0.9,0.4-0.9,0.9v46.1c0,0.5,0.4,0.9,0.9,0.9h7
			c0.7,0,1.4-0.3,1.9-0.9l12.7-15.9l12.7,15.9c0.5,0.6,1.1,0.9,1.9,0.9h9.2C544.1,81.4,544.3,80.9,544,80.5z M506.4,68.1V46.9
			l8.5,10.6L506.4,68.1z"/>
		<path class="st0" d="M416.6,32.3c-13.9,0-25.2,11.3-25.2,25.2c0,13.9,11.3,25.2,25.2,25.2c13.9,0,25.2-11.3,25.2-25.2
			C441.7,43.6,430.5,32.3,416.6,32.3z M416.6,74.1c-8.9,0-16.2-7.4-16.2-16.6c0-9.2,7.2-16.6,16.2-16.6c8.9,0,16.2,7.4,16.2,16.6
			C432.7,66.7,425.5,74.1,416.6,74.1z"/>
		<path class="st0" d="M580.2,33.5H573c-0.5,0-0.9,0.4-0.9,0.9v32.7l-26.2-32.7c-0.5-0.6-1.1-0.9-1.9-0.9H537
			c-0.5,0-0.9,0.4-0.9,0.9v22.2c0,0.5,0.2,1.1,0.5,1.5l7.5,9.4c0.3,0.4,1,0.2,1-0.3V47.8l26.2,32.7c0.5,0.6,1.1,0.9,1.9,0.9h7
			c0.5,0,0.9-0.4,0.9-0.9V34.4C581.1,33.9,580.7,33.5,580.2,33.5z"/>
		<path class="st0" d="M449.9,81.4h7.2c0.5,0,0.9-0.4,0.9-0.9V42.1h20.6l-13.9,17.4c-0.3,0.3-0.3,0.8,0,1.1l15.9,19.9
			c0.5,0.6,1.1,0.9,1.9,0.9h9.2c0.5,0,0.7-0.5,0.4-0.9l-16.4-20.5l11.3-14.2c0.3-0.4,0.5-0.9,0.5-1.5v-10c0-0.5-0.4-0.9-0.9-0.9
			h-36.8c-0.5,0-0.9,0.4-0.9,0.9v46.1C449,81,449.4,81.4,449.9,81.4z"/>
		<path class="st0" d="M390.7,72.9h-20.1V34.4c0-0.5-0.4-0.9-0.9-0.9h-7.2c-0.5,0-0.9,0.4-0.9,0.9v46.1c0,0.5,0.4,0.9,0.9,0.9h21.4
			c0.7,0,1.4-0.3,1.9-0.9l5.4-6.7C391.5,73.4,391.2,72.9,390.7,72.9z"/>
		<path class="st0" d="M299.3,98.6c-11.7,0-17,7-17,22.3v38.3c0,15.3,5.3,22.3,17,22.3c11.6,0,17-7,17-22.3v-38.3
			C316.3,105.7,310.9,98.6,299.3,98.6z M301.8,159.2c0,8-0.7,9.2-2.5,9.2c-2,0-2.6-1.2-2.6-9.2v-38.3c0-8,0.7-9.1,2.7-9.1
			c1.7,0,2.3,1.1,2.3,9.1V159.2z"/>
		<path class="st0" d="M337.6,99.7h-17.1v80.6h14.6v-29.2h2.8c9.8,0,15.6-7.9,15.6-25.3C353.6,108,347.7,99.7,337.6,99.7z
			 M337.3,139.4h-2.1V113h2.1c1.5,0,2.1,1.4,2.1,12.9C339.3,137.3,338.7,139.4,337.3,139.4z"/>
		<polygon class="st0" points="371.7,144.2 380.6,144.2 380.6,132.1 371.7,132.1 371.7,113.3 383.7,113.3 383.7,99.7 357.1,99.7 
			357.1,180.3 383.9,180.3 383.9,166.9 371.7,166.9 		"/>
		<polygon class="st0" points="408.4,133.8 408.1,133.8 397.8,99.7 387.2,99.7 387.2,180.3 399.9,180.3 399.9,143.9 400.1,143.9 
			411.6,180.3 421.1,180.3 421.1,99.7 408.4,99.7 		"/>
		<polygon class="st0" points="435.6,113.3 443.5,113.3 443.5,180.3 458,180.3 458,113.3 465.9,113.3 465.9,99.7 435.6,99.7 		"/>
		<path class="st0" d="M484.2,98.6c-11.7,0-17,7-17,22.3v38.3c0,15.3,5.3,22.3,17,22.3c11.6,0,17-7,17-22.3v-38.3
			C501.2,105.7,495.8,98.6,484.2,98.6z M486.7,159.2c0,8-0.7,9.2-2.5,9.2c-2,0-2.6-1.2-2.6-9.2v-38.3c0-8,0.7-9.1,2.7-9.1
			c1.7,0,2.3,1.1,2.3,9.1V159.2z"/>
		<path class="st0" d="M524.7,159.5c0,6.8-0.9,8-2.5,8c-2,0-2.6-1.4-2.6-8V99.7h-14.5v59.7c0,15.9,6.2,22,17.1,22
			c10.7,0,16.9-6.3,16.9-22.4V99.7h-14.4V159.5z"/>
		<path class="st0" d="M576.6,123c0-16.5-5.2-23.2-15.4-23.2h-17.5v80.6h14.6v-33h0.9l4.7,33h14.4l-6.5-37.9
			C575,139.7,576.6,134.3,576.6,123z M559.8,135.4h-1.4v-22.3h1.2c1.8,0,2.8,0.6,2.8,11.4C562.5,134.6,561.5,135.4,559.8,135.4z"/>
		<polygon class="st0" points="592.1,180.3 606.8,180.3 606.8,145.8 617.9,145.8 617.9,132.6 606.8,132.6 606.8,113.3 619.1,113.3 
			619.1,99.7 592.1,99.7 		"/>
		<path class="st0" d="M667.1,99.7L657,180.3l-6.5-37.9c3.2-2.7,4.8-8.1,4.8-19.4c0-16.5-5.2-23.2-15.4-23.2h-17.5v80.6h14.6v-33
			h0.9l4.7,33H657h0h14.4l1.4-17.3h6.3l1.4,17.3h14.9l-10.1-80.6H667.1z M638.4,135.4h-1.4v-22.3h1.2c1.8,0,2.8,0.6,2.8,11.4
			C641.1,134.6,640.1,135.4,638.4,135.4z M673.6,151.8l2.2-31.4h0.2l2.2,31.4H673.6z"/>
		<polygon class="st0" points="718.9,133.8 718.7,133.8 708.3,99.7 697.7,99.7 697.7,180.3 710.4,180.3 710.4,143.9 710.7,143.9 
			722.1,180.3 731.6,180.3 731.6,99.7 718.9,99.7 		"/>
		<path class="st0" d="M752.9,168.4c-1.8,0-2.5-2-2.5-6.5v-42.1c0-6.1,0.5-7.9,2.3-7.9c1.5,0,2.5,1.8,2.7,9.2l11.8-2.1
			c-0.7-13.5-6.6-20.4-15.4-20.4c-9.6,0-15.9,7.7-15.9,21.3v41.9c0,12.2,5.7,19.6,15.6,19.6c9.5,0,14.8-5.5,15.8-20.8l-11.9-2
			C755.1,166.4,754.5,168.4,752.9,168.4z"/>
		<polygon class="st0" points="785,166.9 785,144.2 793.9,144.2 793.9,132.1 785,132.1 785,113.3 796.9,113.3 796.9,99.7 
			770.4,99.7 770.4,180.3 797.2,180.3 797.2,166.9 		"/>
		<path class="st0" d="M63.3,134.6l-0.1-0.1V79.2l1.5-0.9l0,0l46.4-26.7l0.3-0.2L57.8,39.7c-0.8,0-1.7,0.3-2.3,0.8L1.4,83.7
			C0.5,84.4,0,85.5,0,86.6v41.6c0,0.7,0.8,1.1,1.4,0.7l30-24l5.9-4.7l-4.3,7.4l-6.9,12c-0.4,0.7-0.6,1.6-0.4,2.4L36,190.6
			c0.2,1.1,0.8,2.1,1.8,2.7L74,214.1c0.6,0.4,1.4-0.2,1.3-0.9l-5.8-38l-1.1-7.2l4.2,7.2l7,12.1c0.4,0.7,1.1,1.3,1.9,1.6l64.6,25.2
			c1,0.4,2.2,0.3,3.2-0.2l36.1-20.8c0.6-0.4,0.6-1.3-0.1-1.6l-35.7-14l-38.1-15.1L63.3,134.6L63.3,134.6z"/>
		<path class="st0" d="M221.3,85.4l-29.9,23.9l-6.5,5.2l4.8-8.3v0l6.9-12c0.4-0.7,0.6-1.6,0.4-2.4l-10.4-68.3
			c-0.2-1.1-0.8-2.1-1.8-2.6l-36-20.7c-0.6-0.4-1.4,0.2-1.3,0.9l5.8,38l1.1,7.6l-4.4-7.6l-7-12.1c-0.4-0.7-1.1-1.3-1.9-1.6L76.7,0.3
			c-1-0.4-2.2-0.3-3.2,0.2L37.4,21.3c-0.6,0.4-0.6,1.3,0.1,1.6l36,14.1l37.8,14.5l1.4,0.8l46.7,26.9l0.1,0v55.4l-48.2,27.7
			l53.6,12.3c0.8,0,1.7-0.3,2.3-0.8l54.1-43.2c0.9-0.7,1.4-1.8,1.4-2.9V86.1C222.7,85.4,221.9,85,221.3,85.4z"/>
		<path class="st0" d="M141.7,83.5l-26.9,33.6c-0.2,0.3,0,0.7,0.3,0.7h19.4c0.5,0,1-0.2,1.3-0.6l6.1-7.7c0.2-0.3,0.4-0.7,0.4-1.1
			V83.8C142.4,83.4,141.9,83.2,141.7,83.5z"/>
		<path class="st0" d="M79.9,83.5c-0.2-0.3-0.7-0.1-0.7,0.3v24.6c0,0.4,0.1,0.8,0.4,1.1l20.2,25.2c0.3,0.4,0.8,0.6,1.3,0.6h19.4
			c0.3,0,0.5-0.4,0.3-0.7L79.9,83.5z"/>
	</g>
</g>
</svg>
